<svg width="1em" height="1em" viewBox="0 0 40 40" fill="none" xmlns="http://www.w3.org/2000/svg">
    <path d="M28.1182 38.8859C28.6074 39.373 29.3989 39.3711 29.8859 38.8818C30.373 38.3926 30.3711 37.6011 29.8818 37.1141L28.1182 38.8859ZM29.8818 2.88593C30.3711 2.3989 30.373 1.60745 29.8859 1.11816C29.3989 0.628881 28.6074 0.627049 28.1182 1.11407L29.8818 2.88593ZM12.5792 24.5352L11.6974 23.6493L12.5792 24.5352ZM11.1326 24.5352L12.0144 23.6493L11.1326 24.5352ZM16.4122 19.28L17.294 18.3941L16.4122 19.28ZM16.4122 20.72L17.294 21.6059H17.294L16.4122 20.72ZM11.1326 15.4648L12.0144 16.3507L11.1326 15.4648ZM12.5792 15.4648L13.4611 14.5788V14.5788L12.5792 15.4648ZM7.29962 19.28L6.41778 18.3941H6.41778L7.29962 19.28ZM7.29962 20.72L6.41778 21.6059H6.41778L7.29962 20.72ZM14.026 16.9048L13.1442 17.7908V17.7908L14.026 16.9048ZM8.18145 20.1659L12.0144 16.3507L10.2507 14.5788L6.41778 18.3941L8.18145 20.1659ZM12.0144 23.6493L8.18145 19.8341L6.41778 21.6059L10.2507 25.4212L12.0144 23.6493ZM11.6974 23.6493C11.7856 23.5615 11.9262 23.5615 12.0144 23.6493L10.2507 25.4212C11.1379 26.3042 12.5739 26.3042 13.4611 25.4212L11.6974 23.6493ZM15.5303 20.1659C15.4389 20.075 15.4389 19.925 15.5303 19.8341L17.294 21.6059C18.1844 20.7197 18.1844 19.2803 17.294 18.3941L15.5303 20.1659ZM12.0144 16.3507C11.9262 16.4385 11.7856 16.4385 11.6974 16.3507L13.4611 14.5788C12.5739 13.6958 11.1379 13.6958 10.2507 14.5788L12.0144 16.3507ZM6.41778 18.3941C5.52741 19.2803 5.5274 20.7197 6.41778 21.6059L8.18145 19.8341C8.27285 19.925 8.27285 20.075 8.18145 20.1659L6.41778 18.3941ZM14.9078 17.7908L29.8818 2.88593L28.1182 1.11407L13.1442 16.0189L14.9078 17.7908ZM11.6974 16.3507L13.1442 17.7908L14.9078 16.0189L13.4611 14.5788L11.6974 16.3507ZM13.1442 17.7908L15.5303 20.1659L17.294 18.3941L14.9078 16.0189L13.1442 17.7908ZM29.8818 37.1141L14.9078 22.2092L13.1442 23.9811L28.1182 38.8859L29.8818 37.1141ZM15.5303 19.8341L13.1442 22.2092L14.9078 23.9811L17.294 21.6059L15.5303 19.8341ZM13.1442 22.2092L11.6974 23.6493L13.4611 25.4212L14.9078 23.9811L13.1442 22.2092Z"
          fill="currentColor"/>
</svg>
