<svg width="1em" height="1em" viewBox="0 0 40 40" fill="none" xmlns="http://www.w3.org/2000/svg">
    <path d="M6.56792 16.04C8.50808 16.3158 10 17.9837 10 20C10 22.0163 8.50808 23.6842 6.56792 23.96M6.56792 16.04C6.3824 16.0136 6.1928 16 6 16C3.79086 16 2 17.7909 2 20C2 22.2091 3.79086 24 6 24C6.19279 24 6.3824 23.9864 6.56792 23.96M6.56792 16.04C7.90657 11.4921 11.4921 7.90657 16.04 6.56792M6.56792 23.96C7.90657 28.5079 11.4921 32.0934 16.04 33.4321M23.96 6.56792C23.9864 6.3824 24 6.1928 24 6C24 3.79086 22.2091 2 20 2C17.7909 2 16 3.79086 16 6C16 6.1928 16.0136 6.3824 16.04 6.56792M23.96 6.56792C23.6842 8.50808 22.0163 10 20 10C17.9837 10 16.3158 8.50808 16.04 6.56792M23.96 6.56792C28.5079 7.90657 32.0934 11.4921 33.4321 16.04M33.4321 16.04C31.4919 16.3158 30 17.9837 30 20C30 22.0163 31.4919 23.6842 33.4321 23.96M33.4321 16.04C33.6176 16.0136 33.8072 16 34 16C36.2091 16 38 17.7909 38 20C38 22.2091 36.2091 24 34 24C33.8072 24 33.6176 23.9864 33.4321 23.96M33.4321 23.96C32.0934 28.5079 28.5079 32.0934 23.96 33.4321M16.04 33.4321C16.0136 33.6176 16 33.8072 16 34C16 36.2091 17.7909 38 20 38C22.2091 38 24 36.2091 24 34C24 33.8072 23.9864 33.6176 23.96 33.4321M16.04 33.4321C16.3158 31.4919 17.9837 30 20 30C22.0163 30 23.6842 31.4919 23.96 33.4321"
          stroke="currentColor" stroke-width="2.5"/>
</svg>
