<svg width="1em" height="1em" viewBox="0 0 40 40" fill="none" xmlns="http://www.w3.org/2000/svg">
    <path d="M6.7236 24.9868L7.81135 25.6027L6.7236 24.9868C6.56864 25.2605 6.49555 25.5581 6.44545 25.7621C6.44062 25.7818 6.436 25.8006 6.43155 25.8184L4.5556 33.3222C4.55275 33.3336 4.5497 33.3457 4.5465 33.3584C4.51046 33.5015 4.4547 33.7228 4.43518 33.9223C4.41242 34.155 4.40063 34.7024 4.8491 35.1509C5.29755 35.5994 5.84497 35.5876 6.07764 35.5648C6.27714 35.5453 6.49851 35.4895 6.64157 35.4535C6.65428 35.4503 6.66638 35.4472 6.67778 35.4444L14.1816 33.5684C14.1994 33.564 14.2182 33.5594 14.2379 33.5545C14.4419 33.5044 14.7395 33.4314 15.0132 33.2764C15.2868 33.1214 15.5026 32.9038 15.6506 32.7547C15.6648 32.7403 15.6784 32.7266 15.6914 32.7136L14.8076 31.8297L15.6914 32.7136L33.7973 14.6077C33.812 14.5931 33.8267 14.5784 33.8414 14.5637C34.1361 14.2691 34.4386 13.9668 34.6572 13.6803C34.9087 13.3507 35.1634 12.8999 35.1634 12.3096C35.1634 11.7193 34.9087 11.2686 34.6572 10.939C34.4386 10.6525 34.1361 10.3501 33.8414 10.0556C33.8267 10.0409 33.812 10.0262 33.7973 10.0115L29.9885 6.20269C29.9738 6.18803 29.9591 6.17333 29.9444 6.15862C29.6499 5.86392 29.3475 5.56138 29.061 5.3428C28.7314 5.0913 28.2807 4.83658 27.6904 4.83658C27.1001 4.83658 26.6493 5.0913 26.3197 5.3428C26.0332 5.56138 25.7309 5.86392 25.4363 6.15862C25.4216 6.17333 25.4069 6.18803 25.3923 6.20269L26.2762 7.08658L25.3923 6.20269L7.28641 24.3085C7.27343 24.3215 7.25968 24.3352 7.24531 24.3494C7.09615 24.4973 6.87856 24.7131 6.7236 24.9868Z"
          stroke="currentColor" stroke-width="2.5"/>
    <path d="M22.1594 8.991L28.7967 4.56616L35.4339 11.2034L31.0091 17.8407L22.1594 8.991Z" fill="currentColor"/>
</svg>
