<svg width="1em" height="1em" viewBox="0 0 40 40" fill="none" xmlns="http://www.w3.org/2000/svg">
    <g clip-path="url(#clip0_107_840)">
        <path d="M38.7653 8.86397L31.1834 1.28204C30.0461 0.144755 28.0243 0.144755 26.887 1.28204L1.2348 26.8078C0.0975139 28.0715 0.0975139 29.967 1.2348 31.1043L8.81672 38.6862C9.44855 39.318 10.2067 39.5708 10.9649 39.5708C11.7231 39.5708 12.4813 39.318 12.9868 38.6862L38.7653 13.1604C39.9026 11.8967 39.9026 10.0013 38.7653 8.86397ZM37.0829 11.478L11.4308 37.1302C11.1183 37.4426 10.7369 37.3726 10.4336 37.0693L2.85171 29.4874C2.58414 29.2198 2.53437 28.6858 2.76038 28.4598L28.2862 2.80762C28.4125 2.68126 28.7825 2.54242 28.9088 2.54242C29.0352 2.54242 29.4051 2.68126 29.5314 2.80762L37.1134 10.3895C37.3339 10.6101 37.3461 11.2148 37.0829 11.478Z"
              fill="currentColor"/>
        <path d="M11.2531 24.7504L8.22032 21.7176C7.71486 21.2121 7.07641 21.1348 6.57095 21.6402C6.06549 22.1457 6.1629 22.7641 6.66836 23.2696L9.70113 26.3023C10.2007 26.8019 10.8785 26.8949 11.378 26.3953C11.8835 25.8899 11.7586 25.2558 11.2531 24.7504Z"
              fill="currentColor"/>
        <path d="M9.42378 30.2593L5.02233 25.8578C4.51686 25.3524 3.87841 25.275 3.37295 25.7805C2.86749 26.286 2.9649 26.9044 3.47036 27.4098L7.87182 31.8113C8.37137 32.3108 9.04915 32.4038 9.54871 31.9043C10.0542 31.3988 9.92924 30.7648 9.42378 30.2593Z"
              fill="currentColor"/>
        <path d="M20.675 19.1148L16.2735 14.7133C15.7681 14.2079 15.1296 14.1305 14.6242 14.636C14.1187 15.1414 14.2161 15.7598 14.7216 16.2653L19.123 20.6667C19.6226 21.1663 20.3004 21.2593 20.7999 20.7597C21.3054 20.2543 21.1805 19.6202 20.675 19.1148Z"
              fill="currentColor"/>
        <path d="M31.8732 8.09024L27.4718 3.68878C26.9663 3.18332 26.3279 3.10597 25.8224 3.61143C25.317 4.11689 25.4144 4.73529 25.9198 5.24075L30.3213 9.6422C30.8208 10.1418 31.4986 10.2348 31.9982 9.7352C32.5036 9.22974 32.3787 8.5957 31.8732 8.09024Z"
              fill="currentColor"/>
        <path d="M15.1015 20.975L12.0687 17.9422C11.5633 17.4367 10.9248 17.3594 10.4193 17.8648C9.91388 18.3703 10.0113 18.9887 10.5167 19.4942L13.5495 22.5269C14.0491 23.0265 14.7269 23.1195 15.2264 22.6199C15.7319 22.1145 15.6069 21.4804 15.1015 20.975Z"
              fill="currentColor"/>
        <path d="M22.4255 13.5193L19.3927 10.4865C18.8872 9.98105 18.2488 9.9037 17.7433 10.4092C17.2379 10.9146 17.3353 11.533 17.8407 12.0385L20.8735 15.0712C21.373 15.5708 22.0508 15.6638 22.5504 15.1642C23.0558 14.6588 22.9309 14.0247 22.4255 13.5193Z"
              fill="currentColor"/>
        <path d="M26.1383 9.85473L23.1056 6.82196C22.6001 6.3165 21.9617 6.23915 21.4562 6.74461C20.9507 7.25007 21.0482 7.86846 21.5536 8.37393L24.5864 11.4067C25.0859 11.9063 25.7637 11.9992 26.2633 11.4997C26.7687 10.9942 26.6438 10.3602 26.1383 9.85473Z"
              fill="currentColor"/>
    </g>
    <defs>
        <clipPath id="clip0_107_840">
            <rect width="40" height="40" fill="white"/>
        </clipPath>
    </defs>
</svg>
