<svg width="1em" height="1em" viewBox="0 0 40 40" fill="none" xmlns="http://www.w3.org/2000/svg">
    <path fill-rule="evenodd" clip-rule="evenodd"
          d="M3.16553 19.9999C3.16553 10.715 10.7152 3.16553 20 3.16553C29.2849 3.16553 36.8346 10.7152 36.8346 19.9999C36.8346 29.2848 29.2849 36.8344 20 36.8344C10.7152 36.8344 3.16553 29.2848 3.16553 19.9999ZM5.75546 19.9999C5.75546 12.1454 12.1455 5.75546 20 5.75546C27.8545 5.75546 34.2446 12.1455 34.2446 19.9999C34.2446 27.8544 27.8545 34.2445 20 34.2445C12.1455 34.2445 5.75546 27.8544 5.75546 19.9999Z"
          fill="currentColor"/>
    <path d="M19.8562 4.60437C19.8562 9.79393 19.8562 27.2654 19.8562 35.3957C28.4248 35.3957 35.3958 28.4892 35.3958 20C35.3958 11.5109 28.4248 4.60437 19.8562 4.60437Z"
          fill="currentColor"/>
</svg>
