<?xml version="1.0" standalone="no"?>
<!DOCTYPE svg PUBLIC "-//W3C//DTD SVG 20010904//EN"
 "http://www.w3.org/TR/2001/REC-SVG-20010904/DTD/svg10.dtd">
<svg version="1.0" xmlns="http://www.w3.org/2000/svg"
 width="758.000000pt" height="758.000000pt" viewBox="0 0 758.000000 758.000000"
 preserveAspectRatio="xMidYMid meet">
<metadata>
Created by potrace 1.14, written by Peter Selinger 2001-2017
</metadata>
<g transform="translate(0.000000,758.000000) scale(0.100000,-0.100000)"
fill="#000000" stroke="none">
<path d="M1239 7560 c-20 -11 -48 -33 -62 -50 -14 -16 -27 -30 -29 -30 -13 0
-707 -708 -722 -737 -20 -36 -20 -83 -20 -2942 -1 -2401 1 -2912 12 -2945 11
-33 88 -116 400 -429 213 -214 404 -397 424 -408 36 -19 88 -19 2545 -19 2425
0 2509 1 2548 19 27 12 170 149 432 412 350 353 392 398 399 434 11 57 11
5801 0 5850 -8 35 -58 89 -400 434 -261 262 -404 399 -431 412 -39 18 -120 19
-2550 18 -2455 0 -2511 0 -2546 -19z m2008 -1210 c45 -20 80 -50 105 -90 43
-72 42 -21 43 -1544 2 -1535 4 -1475 -45 -1578 -24 -52 -191 -228 -255 -269
-45 -29 -120 -55 -180 -63 -50 -6 -171 -24 -205 -30 -14 -3 -90 -14 -170 -26
-182 -27 -197 -30 -240 -35 -19 -2 -98 -14 -175 -25 -77 -12 -155 -23 -174
-26 -19 -2 -48 -7 -65 -11 -65 -14 -189 -5 -251 17 -58 22 -136 75 -163 112
-7 9 -18 23 -25 30 -15 15 -55 95 -64 129 -14 48 -8 264 12 464 10 105 17 172
21 190 2 11 7 45 10 75 3 30 7 66 9 80 2 14 7 43 10 65 3 22 8 51 10 65 3 14
8 43 11 65 3 22 12 72 20 110 8 39 17 86 20 105 3 19 8 38 10 41 2 3 6 21 9
40 3 19 13 61 22 94 8 33 17 70 19 82 8 40 75 267 104 351 16 45 27 82 23 82
-3 0 -1 6 5 13 5 6 26 53 45 103 69 180 274 560 308 572 5 2 9 8 9 14 0 5 6
15 13 23 6 7 21 25 32 41 111 153 468 524 505 524 4 0 10 4 12 8 10 26 251
172 283 172 8 0 15 5 15 12 0 6 3 8 6 5 4 -3 15 -2 26 4 35 19 141 36 197 32
30 -2 74 -12 98 -23z m1321 9 c18 -6 39 -12 45 -13 40 -9 198 -88 244 -122 17
-13 36 -24 41 -24 6 0 12 -3 14 -7 2 -5 37 -35 78 -67 114 -89 333 -313 425
-434 21 -29 43 -52 47 -52 4 0 8 -6 8 -14 0 -8 4 -16 8 -18 28 -11 182 -261
264 -428 60 -122 148 -337 148 -362 0 -8 4 -18 8 -23 8 -9 52 -141 56 -169 1
-6 5 -16 8 -21 10 -16 75 -270 82 -320 2 -11 6 -27 9 -35 7 -19 27 -114 33
-157 2 -18 9 -54 15 -80 6 -27 12 -59 14 -73 2 -14 9 -56 15 -93 6 -37 13 -89
16 -115 3 -26 7 -58 9 -72 11 -62 30 -231 41 -375 20 -260 12 -349 -41 -440
-50 -87 -172 -175 -267 -193 -58 -10 -168 -5 -258 13 -14 2 -44 7 -65 9 -22 2
-71 9 -110 16 -38 6 -85 13 -104 15 -19 2 -50 7 -70 10 -51 8 -169 26 -211 31
-19 3 -62 9 -95 15 -33 5 -79 11 -102 13 -22 2 -45 6 -50 9 -4 2 -36 8 -71 11
-186 19 -254 50 -378 172 -89 87 -164 187 -164 218 0 8 -4 17 -9 21 -6 3 -10
13 -11 23 -1 9 -3 664 -5 1456 -2 1089 0 1451 9 1490 25 104 93 173 193 194
46 10 136 5 181 -9z m-145 -4668 c37 -13 85 -53 105 -89 48 -86 -1 -215 -97
-255 -18 -7 -455 -10 -1376 -11 l-1350 -1 -45 21 c-74 35 -111 98 -105 179 3
43 46 125 66 125 4 0 15 7 24 17 12 11 42 18 103 22 166 11 2639 3 2675 -8z
m-1258 -701 c77 -25 135 -119 120 -193 -15 -74 -41 -110 -105 -142 -33 -17
-85 -18 -760 -18 -677 0 -727 1 -760 18 -161 82 -131 314 44 342 27 4 359 7
736 7 523 -1 696 -4 725 -14z"/>
</g>
</svg>
